<svg width="20" height="20" viewBox="0 0 20 20" fill="none" xmlns="http://www.w3.org/2000/svg">
<path d="M7.49984 10C9.10817 10 10.4165 8.69167 10.4165 7.08334C10.4165 5.47501 9.10817 4.16667 7.49984 4.16667C5.8915 4.16667 4.58317 5.47501 4.58317 7.08334C4.58317 8.69167 5.8915 10 7.49984 10ZM7.49984 5.83334C8.1915 5.83334 8.74984 6.39167 8.74984 7.08334C8.74984 7.775 8.1915 8.33334 7.49984 8.33334C6.80817 8.33334 6.24984 7.775 6.24984 7.08334C6.24984 6.39167 6.80817 5.83334 7.49984 5.83334ZM7.49984 11.4583C5.54984 11.4583 1.6665 12.4333 1.6665 14.375V15C1.6665 15.4583 2.0415 15.8333 2.49984 15.8333H12.4998C12.9582 15.8333 13.3332 15.4583 13.3332 15V14.375C13.3332 12.4333 9.44984 11.4583 7.49984 11.4583ZM3.6165 14.1667C4.3165 13.6833 6.00817 13.125 7.49984 13.125C8.9915 13.125 10.6832 13.6833 11.3832 14.1667H3.6165ZM13.3665 11.5083C14.3332 12.2083 14.9998 13.1417 14.9998 14.375V15.8333H17.4998C17.9582 15.8333 18.3332 15.4583 18.3332 15V14.375C18.3332 12.6917 15.4165 11.7333 13.3665 11.5083ZM12.4998 10C14.1082 10 15.4165 8.69167 15.4165 7.08334C15.4165 5.47501 14.1082 4.16667 12.4998 4.16667C12.0498 4.16667 11.6332 4.27501 11.2498 4.45834C11.7748 5.2 12.0832 6.10834 12.0832 7.08334C12.0832 8.05834 11.7748 8.96667 11.2498 9.70834C11.6332 9.89167 12.0498 10 12.4998 10Z" fill="#696363"/>
</svg>
