<svg width="20" height="20" viewBox="0 0 20 20" fill="none" xmlns="http://www.w3.org/2000/svg">
<path d="M4.16667 18.3334C3.70833 18.3334 3.31611 18.1703 2.99 17.8442C2.66389 17.5181 2.50056 17.1256 2.5 16.6667V5.00002C2.5 4.54169 2.66333 4.14946 2.99 3.82335C3.31667 3.49724 3.70889 3.33391 4.16667 3.33335H5V1.66669H6.66667V3.33335H13.3333V1.66669H15V3.33335H15.8333C16.2917 3.33335 16.6842 3.49669 17.0108 3.82335C17.3375 4.15002 17.5006 4.54224 17.5 5.00002V16.6667C17.5 17.125 17.3369 17.5175 17.0108 17.8442C16.6847 18.1709 16.2922 18.3339 15.8333 18.3334H4.16667ZM4.16667 16.6667H15.8333V8.33335H4.16667V16.6667ZM4.16667 6.66669H15.8333V5.00002H4.16667V6.66669ZM10 11.6667C9.76389 11.6667 9.56611 11.5867 9.40667 11.4267C9.24722 11.2667 9.16722 11.0689 9.16667 10.8334C9.16667 10.5972 9.24667 10.3995 9.40667 10.24C9.56667 10.0806 9.76444 10.0006 10 10C10.2361 10 10.4342 10.08 10.5942 10.24C10.7542 10.4 10.8339 10.5978 10.8333 10.8334C10.8333 11.0695 10.7533 11.2675 10.5933 11.4275C10.4333 11.5875 10.2356 11.6672 10 11.6667ZM6.66667 11.6667C6.43056 11.6667 6.23278 11.5867 6.07333 11.4267C5.91389 11.2667 5.83389 11.0689 5.83333 10.8334C5.83333 10.5972 5.91333 10.3995 6.07333 10.24C6.23333 10.0806 6.43111 10.0006 6.66667 10C6.90278 10 7.10083 10.08 7.26083 10.24C7.42083 10.4 7.50056 10.5978 7.5 10.8334C7.5 11.0695 7.42 11.2675 7.26 11.4275C7.1 11.5875 6.90222 11.6672 6.66667 11.6667ZM13.3333 11.6667C13.0972 11.6667 12.8994 11.5867 12.74 11.4267C12.5806 11.2667 12.5006 11.0689 12.5 10.8334C12.5 10.5972 12.58 10.3995 12.74 10.24C12.9 10.0806 13.0978 10.0006 13.3333 10C13.5694 10 13.7675 10.08 13.9275 10.24C14.0875 10.4 14.1672 10.5978 14.1667 10.8334C14.1667 11.0695 14.0867 11.2675 13.9267 11.4275C13.7667 11.5875 13.5689 11.6672 13.3333 11.6667ZM10 15C9.76389 15 9.56611 14.92 9.40667 14.76C9.24722 14.6 9.16722 14.4022 9.16667 14.1667C9.16667 13.9306 9.24667 13.7328 9.40667 13.5734C9.56667 13.4139 9.76444 13.3339 10 13.3334C10.2361 13.3334 10.4342 13.4134 10.5942 13.5734C10.7542 13.7334 10.8339 13.9311 10.8333 14.1667C10.8333 14.4028 10.7533 14.6009 10.5933 14.7609C10.4333 14.9209 10.2356 15.0006 10 15ZM6.66667 15C6.43056 15 6.23278 14.92 6.07333 14.76C5.91389 14.6 5.83389 14.4022 5.83333 14.1667C5.83333 13.9306 5.91333 13.7328 6.07333 13.5734C6.23333 13.4139 6.43111 13.3339 6.66667 13.3334C6.90278 13.3334 7.10083 13.4134 7.26083 13.5734C7.42083 13.7334 7.50056 13.9311 7.5 14.1667C7.5 14.4028 7.42 14.6009 7.26 14.7609C7.1 14.9209 6.90222 15.0006 6.66667 15ZM13.3333 15C13.0972 15 12.8994 14.92 12.74 14.76C12.5806 14.6 12.5006 14.4022 12.5 14.1667C12.5 13.9306 12.58 13.7328 12.74 13.5734C12.9 13.4139 13.0978 13.3339 13.3333 13.3334C13.5694 13.3334 13.7675 13.4134 13.9275 13.5734C14.0875 13.7334 14.1672 13.9311 14.1667 14.1667C14.1667 14.4028 14.0867 14.6009 13.9267 14.7609C13.7667 14.9209 13.5689 15.0006 13.3333 15Z" fill="#696363"/>
</svg>
