<svg width="20" height="20" viewBox="0 0 20 20" fill="none" xmlns="http://www.w3.org/2000/svg">
<path d="M9.99992 16.125C11.6944 14.5695 12.9513 13.1564 13.7708 11.8859C14.5902 10.6153 14.9999 9.48669 14.9999 8.50002C14.9999 6.98613 14.5174 5.74669 13.5524 4.78169C12.5874 3.81669 11.4033 3.33391 9.99992 3.33335C8.59714 3.33335 7.41325 3.81613 6.44825 4.78169C5.48325 5.74724 5.00047 6.98669 4.99992 8.50002C4.99992 9.48613 5.40964 10.6147 6.22909 11.8859C7.04853 13.157 8.30547 14.57 9.99992 16.125ZM9.99992 17.7709C9.80547 17.7709 9.61103 17.7361 9.41659 17.6667C9.22214 17.5972 9.04853 17.4931 8.89575 17.3542C7.99297 16.5209 7.19436 15.7084 6.49992 14.9167C5.80547 14.125 5.22575 13.3578 4.76075 12.615C4.2952 11.8717 3.94103 11.1564 3.69825 10.4692C3.45547 9.78196 3.33381 9.12558 3.33325 8.50002C3.33325 6.41669 4.00353 4.75696 5.34409 3.52085C6.68464 2.28474 8.23659 1.66669 9.99992 1.66669C11.7638 1.66669 13.316 2.28474 14.6566 3.52085C15.9971 4.75696 16.6671 6.41669 16.6666 8.50002C16.6666 9.12502 16.5452 9.78141 16.3024 10.4692C16.0596 11.157 15.7055 11.8722 15.2399 12.615C14.7744 13.3578 14.1944 14.125 13.4999 14.9167C12.8055 15.7084 12.0069 16.5209 11.1041 17.3542C10.9513 17.4931 10.7777 17.5972 10.5833 17.6667C10.3888 17.7361 10.1944 17.7709 9.99992 17.7709ZM9.99992 10C10.4583 10 10.8508 9.83696 11.1774 9.51085C11.5041 9.18474 11.6671 8.79224 11.6666 8.33335C11.6666 7.87502 11.5035 7.4828 11.1774 7.15669C10.8513 6.83058 10.4588 6.66724 9.99992 6.66669C9.54159 6.66669 9.14936 6.83002 8.82325 7.15669C8.49714 7.48335 8.33381 7.87558 8.33325 8.33335C8.33325 8.79169 8.49659 9.18419 8.82325 9.51085C9.14992 9.83752 9.54214 10.0006 9.99992 10Z" fill="#696363"/>
</svg>
