<svg width="545" height="539" viewBox="0 0 545 539" fill="none" xmlns="http://www.w3.org/2000/svg">
<g clip-path="url(#clip0_796_69)">
<path d="M19.9004 538.23C19.9004 538.89 20.4304 539.42 21.0904 539.42H750.38C751.04 539.42 751.57 538.89 751.57 538.23C751.57 537.57 751.04 537.04 750.38 537.04H21.0904C20.4304 537.04 19.9004 537.57 19.9004 538.23Z" fill="#3F3D58"/>
<path d="M253.43 95.15H19.5296C10.6096 95.15 3.34961 87.89 3.34961 78.97C3.34961 70.05 10.6096 62.79 19.5296 62.79H253.43C262.35 62.79 269.61 70.05 269.61 78.97C269.61 87.89 262.35 95.15 253.43 95.15ZM19.5296 64.79C11.7096 64.79 5.34961 71.15 5.34961 78.97C5.34961 86.79 11.7096 93.15 19.5296 93.15H253.43C261.25 93.15 267.61 86.79 267.61 78.97C267.61 71.15 261.25 64.79 253.43 64.79H19.5296Z" fill="#E2E3E4"/>
<path d="M253.43 284.5H19.5296C10.8796 284.5 3.84961 277.47 3.84961 268.82C3.84961 260.17 10.8796 253.14 19.5296 253.14H253.43C262.08 253.14 269.11 260.17 269.11 268.82C269.11 277.47 262.08 284.5 253.43 284.5Z" fill="#0055B0"/>
<path d="M176.78 31.36H15.68C7.03 31.36 0 24.33 0 15.68C0 7.03 7.03 0 15.68 0H176.78C185.43 0 192.46 7.03 192.46 15.68C192.46 24.33 185.43 31.36 176.78 31.36Z" fill="#E2E3E4"/>
<path d="M253.43 158.43H19.5296C10.6096 158.43 3.34961 151.17 3.34961 142.25C3.34961 133.33 10.6096 126.07 19.5296 126.07H253.43C262.35 126.07 269.61 133.33 269.61 142.25C269.61 151.17 262.35 158.43 253.43 158.43ZM19.5296 128.07C11.7096 128.07 5.34961 134.43 5.34961 142.25C5.34961 150.07 11.7096 156.43 19.5296 156.43H253.43C261.25 156.43 267.61 150.07 267.61 142.25C267.61 134.43 261.25 128.07 253.43 128.07H19.5296Z" fill="#E2E3E4"/>
<path d="M253.43 221.72H19.5296C10.6096 221.72 3.34961 214.46 3.34961 205.54C3.34961 196.62 10.6096 189.36 19.5296 189.36H253.43C262.35 189.36 269.61 196.62 269.61 205.54C269.61 214.46 262.35 221.72 253.43 221.72ZM19.5296 191.36C11.7096 191.36 5.34961 197.72 5.34961 205.54C5.34961 213.36 11.7096 219.72 19.5296 219.72H253.43C261.25 219.72 267.61 213.36 267.61 205.54C267.61 197.72 261.25 191.36 253.43 191.36H19.5296Z" fill="#E2E3E4"/>
<path d="M11.4898 51.1699H72.7898C74.2498 51.1699 75.4398 52.3499 75.4398 53.8199C75.4398 55.2799 74.2498 56.4699 72.7898 56.4699H11.4898C10.0298 56.4699 8.83984 55.2899 8.83984 53.8199C8.83984 52.3599 10.0298 51.1699 11.4898 51.1699Z" fill="#E2E3E4"/>
<path d="M11.4898 115.95H72.7898C74.2498 115.95 75.4398 117.13 75.4398 118.59C75.4398 120.05 74.2498 121.24 72.7898 121.24H11.4898C10.0298 121.24 8.83984 120.06 8.83984 118.6C8.83984 117.14 10.0298 115.95 11.4898 115.95Z" fill="#E2E3E4"/>
<path d="M11.4898 180.74H72.7898C74.2498 180.74 75.4398 181.92 75.4398 183.39C75.4398 184.85 74.2498 186.03 72.7898 186.03H11.4898C10.0298 186.03 8.83984 184.85 8.83984 183.38C8.83984 181.92 10.0298 180.74 11.4898 180.74Z" fill="#E2E3E4"/>
<path d="M447.08 132.26L424.72 139.62V107.43H445.01L447.08 132.26Z" fill="#9F616A"/>
<path d="M427.49 116.34C439.795 116.34 449.77 106.365 449.77 94.0598C449.77 81.7549 439.795 71.7798 427.49 71.7798C415.185 71.7798 405.21 81.7549 405.21 94.0598C405.21 106.365 415.185 116.34 427.49 116.34Z" fill="#9F616A"/>
<path d="M433.61 91.8499C429.88 91.7399 427.43 87.9699 425.98 84.5299C424.53 81.0899 423.04 77.1399 419.58 75.7199C416.75 74.5599 411.76 82.4099 409.53 80.3199C407.2 78.1399 409.47 66.9499 411.94 64.9399C414.41 62.9299 417.79 62.5399 420.97 62.3899C428.73 62.0299 436.54 62.6599 444.15 64.2499C448.86 65.2299 453.7 66.7099 457.1 70.1099C461.4 74.4299 462.5 80.9399 462.81 87.0299C463.13 93.2599 462.77 99.7799 459.74 105.23C456.71 110.68 450.37 114.7 444.29 113.31C443.68 110.01 444.3 106.62 444.54 103.26C444.77 99.9099 444.53 96.2899 442.48 93.6199C440.44 90.9499 436.06 89.8899 433.68 92.2599" fill="#2F2E43"/>
<path d="M461.02 99.5696C463.25 97.9396 465.92 96.5696 468.66 96.9096C471.62 97.2696 474.13 99.7096 474.89 102.6C475.65 105.49 474.8 108.67 472.96 111.03C471.13 113.39 468.4 114.95 465.52 115.73C463.85 116.18 462.02 116.37 460.43 115.69C458.09 114.68 456.82 111.69 457.74 109.31" fill="#2F2E43"/>
<path d="M375.76 309.2C374.27 316.52 377 323.21 381.84 324.14C386.68 325.07 391.81 319.88 393.29 312.56C393.92 309.64 393.82 306.62 393 303.74L411.43 188.99L388.38 184.65L379.48 301.15C377.59 303.51 376.32 306.27 375.76 309.21V309.2Z" fill="#9F616A"/>
<path d="M424.48 124.85H408.75C397.63 126.54 394.61 132.47 392.08 143.43C388.22 160.15 383.29 182.41 384.27 182.74C385.84 183.26 412.62 195.86 426.27 192.98L424.48 124.85Z" fill="#E2E3E4"/>
<path d="M439.69 490.36H418.75V520.07H439.69V490.36Z" fill="#9F616A"/>
<path d="M398.36 538.05C396.16 538.05 394.2 538 392.72 537.86C387.16 537.35 381.85 533.24 379.18 530.84C377.98 529.76 377.6 528.04 378.22 526.56C378.67 525.5 379.56 524.7 380.67 524.39L395.37 520.19L419.17 504.13L419.44 504.61C419.54 504.79 421.88 509 422.66 511.84C422.96 512.92 422.88 513.82 422.43 514.52C422.12 515 421.68 515.28 421.33 515.44C421.76 515.89 423.11 516.81 427.27 517.47C433.34 518.43 434.62 512.14 434.67 511.88L434.71 511.67L434.89 511.55C437.78 509.69 439.56 508.84 440.17 509.02C440.55 509.13 441.19 509.33 442.92 526.46C443.09 527 444.3 530.94 443.48 534.71C442.59 538.81 424.67 537.4 421.08 537.08C420.98 537.09 407.56 538.05 398.37 538.05H398.36Z" fill="#2F2E43"/>
<path d="M499.316 467.018L481.548 478.099L497.27 503.308L515.038 492.227L499.316 467.018Z" fill="#9F616A"/>
<path d="M475.72 533.98C473.26 533.98 471 533.68 469.39 533.4C467.81 533.12 466.57 531.86 466.31 530.28C466.13 529.14 466.46 527.99 467.24 527.14L477.49 515.8L489.19 489.58L489.67 489.84C489.85 489.94 494.06 492.27 496.23 494.27C497.06 495.03 497.47 495.84 497.45 496.67C497.44 497.25 497.22 497.71 497 498.04C497.6 498.2 499.23 498.26 503.11 496.62C508.77 494.23 506.53 488.21 506.43 487.96L506.35 487.76L506.44 487.57C507.91 484.46 508.96 482.8 509.58 482.63C509.97 482.52 510.61 482.35 521.14 495.98C521.57 496.34 524.68 499.05 525.98 502.68C527.39 506.63 511.44 514.92 508.23 516.54C508.13 516.62 491.44 528.75 484.58 532.2C481.86 533.57 478.64 533.99 475.71 533.99L475.72 533.98Z" fill="#2F2E43"/>
<path d="M455.109 241.91H396.479L391.159 296.45L414.439 497.97H444.369L432.399 381.58L480.949 486.66L507.549 468.04L469.639 369.94C469.639 369.94 483.179 284.48 472.539 263.19C461.899 241.91 455.109 241.91 455.109 241.91Z" fill="#2F2E43"/>
<path d="M484.279 245.23H391.159L419.099 124.85H459.669L484.279 245.23Z" fill="#E2E3E4"/>
<path d="M492.659 309.2C494.149 316.52 491.419 323.21 486.579 324.14C481.739 325.07 476.609 319.88 475.129 312.56C474.499 309.64 474.599 306.62 475.419 303.74L456.989 188.99L480.039 184.65L488.939 301.15C490.829 303.51 492.099 306.27 492.659 309.21V309.2Z" fill="#9F616A"/>
<path d="M443.939 124.85H459.669C470.789 126.54 473.809 132.47 476.339 143.43C480.199 160.15 485.129 182.41 484.149 182.74C482.579 183.26 455.799 195.86 442.149 192.98L443.939 124.85Z" fill="#E2E3E4"/>
</g>
<defs>
<clipPath id="clip0_796_69">
<rect width="545" height="539" fill="white"/>
</clipPath>
</defs>
</svg>
